# xmcd
#
# Track frame offsets:
# 150
# 21050
# 35800
# 51205
# 69062
# 83550
# 103737
# 119435
# 138510
# 158172
# 172967
# 186757
#
# Disc length: 2721 seconds
#
#
# Revision: 0
# Processed by: cddbd v1.5.2PL0 Copyright (c) Steve Scherf et al.
# Submitted via: FreeRIP 2.951 
#
DISCID=980a9f0c
DTITLE=fat family - fat family
DYEAR=2003
DGENRE=Blues
TTITLE0=lilas
TTITLE1=perheaps love
TTITLE2=amanhã
TTITLE3=stand by me
TTITLE4=deus é o amor
TTITLE5=força estranha
TTITLE6=joyful. joyful
TTITLE7=amor de índio
TTITLE8=o homem de nazare
TTITLE9=poor pilgrim of sorrow
TTITLE10=luzes da ribalta
TTITLE11=deus é o amor (remix)
EXTD=
EXTT0=
EXTT1=
EXTT2=
EXTT3=
EXTT4=
EXTT5=
EXTT6=
EXTT7=
EXTT8=
EXTT9=
EXTT10=
EXTT11=
PLAYORDER=
